name C:\Users\u0150099\Documents\master_thesis\3dpredictsim\Results\debug\Fal_s1_mtjc2_sc_cspx10_oy2_ATx70_Fpsl10_MTc2_MTPm_k1_d01_MTJm_nl_MG_exp5_table_d01_PF_Gefen2002_xv2_ls146_ig21_test1.mot
datacolumns 128
datarows 4
range 1.74278432 1.77764001
endheader
time	pelvis_tilt	pelvis_list	pelvis_rotation	pelvis_tx	pelvis_ty	pelvis_tz	hip_flexion_l	hip_adduction_l	hip_rotation_l	hip_flexion_r	hip_adduction_r	hip_rotation_r	knee_angle_l	knee_angle_r	ankle_angle_l	ankle_angle_r	subtalar_angle_l	subtalar_angle_r	mtj_angle_l	mtj_angle_r	mtp_angle_l	mtp_angle_r	lumbar_extension	lumbar_bending	lumbar_rotation	arm_flex_l	arm_add_l	arm_rot_l	arm_flex_r	arm_add_r	arm_rot_r	elbow_flex_l	elbow_flex_r	pro_sup_l	pro_sup_r	glut_med1_l/activation	glut_med2_l/activation	glut_med3_l/activation	glut_min1_l/activation	glut_min2_l/activation	glut_min3_l/activation	semimem_l/activation	semiten_l/activation	bifemlh_l/activation	bifemsh_l/activation	sar_l/activation	add_long_l/activation	add_brev_l/activation	add_mag1_l/activation	add_mag2_l/activation	add_mag3_l/activation	tfl_l/activation	pect_l/activation	grac_l/activation	glut_max1_l/activation	glut_max2_l/activation	glut_max3_l/activation	iliacus_l/activation	psoas_l/activation	quad_fem_l/activation	gem_l/activation	peri_l/activation	rect_fem_l/activation	vas_med_l/activation	vas_int_l/activation	vas_lat_l/activation	med_gas_l/activation	lat_gas_l/activation	soleus_l/activation	tib_post_l/activation	flex_dig_l/activation	flex_hal_l/activation	tib_ant_l/activation	per_brev_l/activation	per_long_l/activation	per_tert_l/activation	ext_dig_l/activation	ext_hal_l/activation	ercspn_l/activation	intobl_l/activation	extobl_l/activation	glut_med1_r/activation	glut_med2_r/activation	glut_med3_r/activation	glut_min1_r/activation	glut_min2_r/activation	glut_min3_r/activation	semimem_r/activation	semiten_r/activation	bifemlh_r/activation	bifemsh_r/activation	sar_r/activation	add_long_r/activation	add_brev_r/activation	add_mag1_r/activation	add_mag2_r/activation	add_mag3_r/activation	tfl_r/activation	pect_r/activation	grac_r/activation	glut_max1_r/activation	glut_max2_r/activation	glut_max3_r/activation	iliacus_r/activation	psoas_r/activation	quad_fem_r/activation	gem_r/activation	peri_r/activation	rect_fem_r/activation	vas_med_r/activation	vas_int_r/activation	vas_lat_r/activation	med_gas_r/activation	lat_gas_r/activation	soleus_r/activation	tib_post_r/activation	flex_dig_r/activation	flex_hal_r/activation	tib_ant_r/activation	per_brev_r/activation	per_long_r/activation	per_tert_r/activation	ext_dig_r/activation	ext_hal_r/activation	ercspn_r/activation	intobl_r/activation	extobl_r/activation	
          1.74278432	          0.33197571	         -1.79749148	         -1.83166396	          2.16865519	          0.89284858	          0.03817409	         31.06697610	          1.28331769	          5.86986568	        -17.60385525	          5.22321286	         -4.23760611	        -17.21484709	        -15.39183273	          1.59114212	         12.64726879	          2.00061580	          9.56275144	          3.17027659	          1.11450892	          7.65175619	          3.30368064	         -6.39951494	          3.32386560	          0.56790770	          5.82459288	        -32.22727041	          1.52064506	         10.74308839	        -31.33728568	          2.47200536	         46.46913867	         52.38533850	         86.51662706	         86.51662706	          0.41961051	          0.46111959	          0.49207100	          0.54002481	          0.53864930	          0.53817316	          0.51459210	          0.52571298	          0.48262758	          0.70491212	          0.65472540	          0.61989904	          0.58729425	          0.55359486	          0.52795123	          0.41512392	          0.59723160	          0.57625629	          0.59377867	          0.48883670	          0.41951630	          0.39987264	          0.75984730	          0.74549030	          0.60908747	          0.59850280	          0.57024473	          0.59669329	          0.43161038	          0.42393902	          0.40051536	          0.36287555	          0.45103521	          0.16611919	          0.56361798	          0.53369415	          0.54261265	          0.65322115	          0.52582150	          0.50600897	          0.59451164	          0.70606350	          0.67932032	          0.64302295	          0.71224285	          0.57223802	          0.64559854	          0.55958873	          0.48234202	          0.60968144	          0.59518352	          0.57276894	          0.51165513	          0.54882938	          0.53639216	          0.55765710	          0.58620537	          0.53906351	          0.53781720	          0.54782273	          0.53862543	          0.55063608	          0.61496554	          0.57166170	          0.55743347	          0.51520321	          0.51373801	          0.51275364	          0.61648584	          0.61732971	          0.47823338	          0.54804129	          0.54655026	          0.63041129	          0.56281381	          0.55902733	          0.53402845	          0.49294134	          0.54212920	          0.39080143	          0.61524858	          0.58092579	          0.58798766	          0.58512251	          0.51558268	          0.42632228	          0.56508542	          0.53694907	          0.56018664	          0.52952807	          0.41588811	          0.55423011	
          1.75440288	          0.20676457	         -1.42192844	         -1.85319292	          2.18564162	          0.89050158	          0.03773209	         31.31440694	          1.96143260	          5.78095072	        -17.79695358	          4.62645989	         -4.61679284	        -18.22939329	        -16.79986672	          0.65779726	         11.65816847	          2.35995943	          9.66386506	          3.48177035	          0.90364961	          7.42915486	          4.14280482	         -6.07546471	          2.87151048	          0.53826239	          6.05930619	        -32.35667373	          1.48417704	         11.35497270	        -31.30738930	          2.19842613	         46.69852532	         53.47260129	         86.51662706	         86.51662706	          0.42032742	          0.46606234	          0.50301228	          0.53694341	          0.53697222	          0.54010034	          0.56956172	          0.55497550	          0.54554481	          0.70603379	          0.64824980	          0.61210609	          0.58751304	          0.55876304	          0.53642710	          0.44570526	          0.58715001	          0.57382427	          0.59730503	          0.49894917	          0.43919908	          0.43010734	          0.72828512	          0.71262076	          0.61419924	          0.59851201	          0.57582205	          0.55918786	          0.42606474	          0.41819580	          0.39278151	          0.38432955	          0.46743144	          0.17912506	          0.56411641	          0.53362456	          0.54237076	          0.60813874	          0.52725955	          0.50792030	          0.57137254	          0.68751397	          0.66854720	          0.66843878	          0.69967676	          0.56459413	          0.64434164	          0.54785979	          0.45790505	          0.60942087	          0.59408060	          0.56810074	          0.51098821	          0.55892069	          0.53856184	          0.57110302	          0.58731426	          0.53880198	          0.53691638	          0.54737216	          0.53999714	          0.55036980	          0.61152526	          0.57194770	          0.55960068	          0.51436596	          0.51259119	          0.51171653	          0.61836398	          0.61975734	          0.46256215	          0.53845009	          0.54174844	          0.58708134	          0.53909721	          0.53384056	          0.50236417	          0.48717864	          0.54079778	          0.36784059	          0.62461025	          0.58548231	          0.59051024	          0.59707153	          0.49060322	          0.39019142	          0.56014004	          0.52060365	          0.55164301	          0.52735997	          0.40037188	          0.53944714	
          1.76602144	          0.04070688	         -0.96876032	         -1.88728751	          2.20288777	          0.88815921	          0.03739409	         31.52376390	          2.65582317	          5.61636047	        -17.90200392	          3.91454661	         -4.89092940	        -19.38865919	        -18.29570626	         -0.90611379	         10.54837389	          2.68597847	          9.85422975	          4.15149064	          0.62636609	          6.49433139	          4.95394140	         -5.70008208	          2.30214828	          0.54376358	          6.38087078	        -32.48627231	          1.40069307	         12.06184228	        -31.25269133	          1.94751244	         46.95681496	         54.60622898	         86.51662706	         86.51662706	          0.45719546	          0.49481909	          0.52680543	          0.54399189	          0.54485129	          0.55027167	          0.61730051	          0.58601782	          0.60344737	          0.68443804	          0.62923456	          0.60056555	          0.58913776	          0.56508057	          0.54939019	          0.49358954	          0.57647790	          0.57053371	          0.59769978	          0.52328511	          0.48700034	          0.48548680	          0.67913609	          0.66691223	          0.60846372	          0.59521804	          0.58067299	          0.51957990	          0.44053949	          0.43264615	          0.40519973	          0.39121629	          0.47398468	          0.18413318	          0.55023052	          0.52827038	          0.53581760	          0.70632633	          0.53403547	          0.50223930	          0.59413993	          0.72206271	          0.67603356	          0.66830646	          0.67679630	          0.54141746	          0.64780308	          0.52643881	          0.42485519	          0.61089321	          0.59143197	          0.55834325	          0.51055229	          0.57140638	          0.54034743	          0.58434996	          0.58701480	          0.54584514	          0.53893802	          0.54652670	          0.54163700	          0.55092196	          0.60838911	          0.57263508	          0.56133443	          0.51318904	          0.51099082	          0.51017288	          0.62368769	          0.62725201	          0.43916438	          0.52380568	          0.53254533	          0.53981456	          0.51096338	          0.50412307	          0.46633330	          0.46990697	          0.53290278	          0.33548024	          0.62952934	          0.58967241	          0.59207095	          0.61815031	          0.46270986	          0.35507190	          0.55498479	          0.50628492	          0.54240759	          0.56856267	          0.39511597	          0.54226464	
          1.77764001	         -0.14701746	         -0.47570365	         -1.95128122	          2.22043006	          0.88595300	          0.03715126	         31.71431430	          3.28502142	          5.31354503	        -17.91591070	          3.10235840	         -5.04816784	        -20.92970366	        -19.89995864	         -2.47215783	          9.26031039	          3.04900859	         10.20652614	          4.47286795	          0.24299007	          4.62301287	          5.76058426	         -5.27861124	          1.67793974	          0.59549256	          6.67983516	        -32.61449503	          1.28389808	         12.78436260	        -31.17719007	          1.74169474	         47.17360836	         55.73152317	         86.51662706	         86.51662706	          0.49077236	          0.52634089	          0.55211526	          0.55360771	          0.55498701	          0.55975743	          0.65473801	          0.62023101	          0.64931149	          0.67961010	          0.61347659	          0.58846984	          0.58306457	          0.56788906	          0.55877041	          0.53109675	          0.56570885	          0.56681541	          0.59932034	          0.54620205	          0.52845761	          0.52759155	          0.63549642	          0.62715051	          0.60272201	          0.59240286	          0.58347636	          0.47762056	          0.44193547	          0.43369643	          0.40413440	          0.39024799	          0.47484597	          0.18031238	          0.54660675	          0.52654430	          0.53272391	          0.72984863	          0.53865965	          0.50159757	          0.60986566	          0.73417555	          0.67204527	          0.64727374	          0.67167621	          0.52305032	          0.66175227	          0.49747729	          0.38716319	          0.61700341	          0.58879637	          0.54494017	          0.51033262	          0.58546822	          0.54103168	          0.60604153	          0.58760397	          0.55784795	          0.54360435	          0.54378217	          0.54300382	          0.55084544	          0.60692387	          0.57434937	          0.56266321	          0.51112825	          0.50800691	          0.50697694	          0.64398879	          0.64810956	          0.40845873	          0.50361820	          0.51982276	          0.49146313	          0.47606252	          0.46791196	          0.42565407	          0.44485382	          0.51930392	          0.30010391	          0.63035824	          0.59316884	          0.59242432	          0.65796782	          0.43279778	          0.32220359	          0.55162026	          0.49723818	          0.53274036	          0.61240924	          0.38736185	          0.55546260	
